<svg width="24" height="24" viewBox="0 0 24 24" fill="none" xmlns="http://www.w3.org/2000/svg">
    <path d="M8.90531 17H5.81006C5.59239 16.9985 5.38117 16.9259 5.20845 16.7934C5.03573 16.6608 4.91095 16.4755 4.85306 16.2656L2.02006 6.0146C1.99231 5.91241 1.99768 5.80405 2.0354 5.70511C2.07312 5.60617 2.14124 5.52176 2.22996 5.46403C2.31868 5.40629 2.42342 5.37821 2.5291 5.38383C2.63478 5.38945 2.73595 5.42848 2.81806 5.4953L7.09406 9.16143C7.20786 9.25553 7.34107 9.32325 7.48412 9.35973C7.62718 9.3962 7.77653 9.40054 7.92146 9.37242C8.06639 9.34429 8.20329 9.28441 8.32235 9.19707C8.44141 9.10973 8.53966 8.9971 8.61006 8.86726L11.5621 3.259C11.6052 3.18056 11.6686 3.11514 11.7457 3.06959C11.8227 3.02403 11.9106 3 12.0001 3C12.0895 3 12.1774 3.02403 12.2544 3.06959C12.3315 3.11514 12.3949 3.18056 12.4381 3.259L15.3901 8.86626C15.4605 8.9961 15.5587 9.10873 15.6778 9.19607C15.7968 9.28341 15.9337 9.34329 16.0787 9.37141C16.2236 9.39954 16.3729 9.3952 16.516 9.35873C16.659 9.32225 16.7923 9.25453 16.9061 9.16043L21.1831 5.4943C21.2652 5.42748 21.3663 5.38845 21.472 5.38283C21.5777 5.37721 21.6824 5.40529 21.7712 5.46303C21.8599 5.52076 21.928 5.60517 21.9657 5.70411C22.0034 5.80305 22.0088 5.91141 21.9811 6.0136L20.7412 10.4988M5 21H10.25M17.4999 13V16.5998M13.8983 14.8026C13.3973 15.4715 13.0925 16.2666 13.0179 17.0989C12.9434 17.9313 13.1021 18.7679 13.4763 19.5151C13.8505 20.2623 14.4254 20.8906 15.1365 21.3294C15.8476 21.7683 16.6669 22.0005 17.5026 22C18.3382 21.9995 19.1572 21.7663 19.8678 21.3265C20.5784 20.8867 21.1525 20.2578 21.5257 19.5101C21.899 18.7624 22.0566 17.9256 21.9811 17.0933C21.9055 16.2611 21.5997 15.4664 21.0979 14.7981" stroke="currentColor" stroke-width="2" stroke-linecap="round" stroke-linejoin="round"/>
</svg>
