<svg width="24" height="24" viewBox="0 0 24 24" fill="none" xmlns="http://www.w3.org/2000/svg">
    <path d="M19 7V4C19 3.73478 18.8946 3.48043 18.7071 3.29289C18.5196 3.10536 18.2652 3 18 3H5C4.46957 3 3.96086 3.21071 3.58579 3.58579C3.21071 3.96086 3 4.46957 3 5M19 7H5C4.46957 7 3.96086 6.78929 3.58579 6.41421C3.21071 6.03914 3 5.53043 3 5M19 7H20C20.2652 7 20.5196 7.10536 20.7071 7.29289C20.8946 7.48043 21 7.73478 21 8V10M3 5V19C3 19.5304 3.21071 20.0391 3.58579 20.4142C3.96086 20.7893 4.46957 21 5 21H7M13.75 22H19.25M16.4999 12V22M11.55 14.222H12.65C13.75 14.222 15.4 13.6664 16.5 13.1108C17.6 13.6664 19.25 14.222 20.35 14.222H21.45M18.7 19.2223L20.35 14.7778L22 19.2223C21.5215 19.5834 20.944 19.7778 20.35 19.7778C19.756 19.7778 19.1785 19.5834 18.7 19.2223ZM11 19.2223L12.65 14.7778L14.3 19.2223C13.8215 19.5834 13.244 19.7778 12.65 19.7778C12.056 19.7778 11.4785 19.5834 11 19.2223Z" stroke="currentColor" stroke-width="2" stroke-linecap="round" stroke-linejoin="round"/>
</svg>
