<svg width="24" height="24" viewBox="0 0 24 24" fill="none" xmlns="http://www.w3.org/2000/svg">
    <path d="M13.75 22H19.25M16.4999 12V22M11.55 14.222H12.65C13.75 14.222 15.4 13.6664 16.5 13.1108C17.6 13.6664 19.25 14.222 20.35 14.222H21.45M18.5 9.5H21.2857C21.6802 9.5 22 9.8198 22 10.2143V11M14.5 4.5H17.2778C17.8671 4.5 18.4324 4.71071 18.8491 5.08579C19.2659 5.46086 19.5 5.96957 19.5 6.5V9.5M9.5 4.5H6.72222C6.13285 4.5 5.56762 4.71071 5.15087 5.08579C4.73413 5.46086 4.5 5.96957 4.5 6.5V9.5M4.5 14.5V17.5C4.5 18.0304 4.73413 18.5391 5.15087 18.9142C5.56762 19.2893 6.13285 19.5 6.72222 19.5H7.30003M18.7 19.2223L20.35 14.7778L22 19.2223C21.5215 19.5834 20.944 19.7778 20.35 19.7778C19.756 19.7778 19.1785 19.5834 18.7 19.2223ZM11 19.2223L12.65 14.7778L14.3 19.2223C13.8215 19.5834 13.244 19.7778 12.65 19.7778C12.056 19.7778 11.4785 19.5834 11 19.2223ZM10.2143 2H13.7857C14.1802 2 14.5 2.3198 14.5 2.71429V6.28571C14.5 6.6802 14.1802 7 13.7857 7H10.2143C9.8198 7 9.5 6.6802 9.5 6.28571V2.71429C9.5 2.3198 9.8198 2 10.2143 2ZM2.71429 9.5H6.28571C6.6802 9.5 7 9.8198 7 10.2143V13.7857C7 14.1802 6.6802 14.5 6.28571 14.5H2.71429C2.3198 14.5 2 14.1802 2 13.7857V10.2143C2 9.8198 2.3198 9.5 2.71429 9.5Z" stroke="currentColor" stroke-width="2" stroke-linecap="round" stroke-linejoin="round"/>
</svg>
