<svg width="24" height="24" viewBox="0 0 24 24" fill="none" xmlns="http://www.w3.org/2000/svg">
    <path d="M17.8333 7.83333V5.33333C17.8333 5.11232 17.7455 4.90036 17.5893 4.74408C17.433 4.5878 17.221 4.5 17 4.5H6.16667C5.72464 4.5 5.30072 4.67559 4.98816 4.98816C4.67559 5.30072 4.5 5.72464 4.5 6.16667M17.8333 7.83333H6.16667C5.72464 7.83333 5.30072 7.65774 4.98816 7.34518C4.67559 7.03262 4.5 6.60869 4.5 6.16667M17.8333 7.83333H18.6667C18.8877 7.83333 19.0996 7.92113 19.2559 8.07741C19.4122 8.23369 19.5 8.44565 19.5 8.66667V10.3333M4.5 6.16667V17.8333C4.5 18.2754 4.67559 18.6993 4.98816 19.0118C5.30072 19.3244 5.72464 19.5 6.16667 19.5H7.83333M20.3331 16.1336V18.5335C20.3331 19.3135 18.7288 20.3334 16.7499 20.3334C14.7709 20.3334 13.1666 19.3135 13.1666 18.5335V15.7499M13.3173 16.3486C13.7601 17.0374 15.1295 17.6835 16.7501 17.6835C18.7291 17.6835 20.3334 16.72 20.3334 15.892C20.3334 15.4271 19.8281 14.9177 19.0352 14.5601M11.1667 13.6995V16.4486C11.1667 16.9078 11.8482 17.2161 12.6943 17.598M14.9411 15.4988C17.0257 15.4988 18.7155 14.5598 18.7155 13.7529C18.7155 12.946 17.0257 12 14.9411 12C12.8565 12 11.1667 12.9455 11.1667 13.7529C11.1667 14.5598 12.8565 15.4988 14.9411 15.4988Z" stroke="currentColor" stroke-width="2" stroke-linecap="round" stroke-linejoin="round" />
</svg>
