<svg width="24" height="24" viewBox="0 0 24 24" fill="none" xmlns="http://www.w3.org/2000/svg">
    <path d="M4.20716 15.3742C3.42382 14.6201 2.82103 13.6922 2.44541 12.6624C2.06978 11.6327 1.93139 10.5285 2.04093 9.43548C2.15048 8.34242 2.50502 7.2897 3.07714 6.35876C3.64927 5.42782 4.42363 4.64359 5.34036 4.06674C6.25708 3.48988 7.2916 3.13586 8.36388 3.03205C9.43617 2.92824 10.5175 3.07742 11.5242 3.46806C12.531 3.85869 13.4361 4.48032 14.1697 5.28485C14.9033 6.08939 15.4456 7.05527 15.7548 8.1078H17.5507C18.5077 8.12096 19.4358 8.44402 20.2011 9.03034C20.9663 9.61666 21.5292 10.4359 21.8083 11.3698C22.0874 12.3037 22.0683 13.3039 21.7539 14.226C21.4394 15.1481 20.8459 15.9444 20.0588 16.5M7.49997 11V14.6364M7.49997 14.6364H11.1M7.49997 14.6364L8.88147 13.1771C9.3981 12.6755 10.0258 12.3058 10.7125 12.0988C11.3991 11.8918 12.1247 11.8533 12.829 11.9867C13.5333 12.1201 14.1958 12.4215 14.7616 12.8657C15.3273 13.3099 15.7798 13.8842 16.0815 14.5407M16.5 21.0001V17.3638M16.5 17.3638H12.9M16.5 17.3638L15.1185 18.8229C14.6018 19.3244 13.9741 19.6941 13.2875 19.9011C12.6009 20.1082 11.8752 20.1466 11.1709 20.0132C10.4667 19.8798 9.80409 19.5785 9.23837 19.1342C8.67265 18.69 8.22012 18.1157 7.91846 17.4592" stroke="currentColor" stroke-width="2" stroke-linecap="round" stroke-linejoin="round"/>
</svg>
