<svg width="24" height="24" viewBox="0 0 24 24" fill="none" xmlns="http://www.w3.org/2000/svg">
    <path fill-rule="evenodd" clip-rule="evenodd" d="M7.5 3C5.01472 3 3 5.01472 3 7.5V16.5C3 18.9852 5.01472 21 7.5 21H16.5C18.9852 21 21 18.9852 21 16.5V7.5C21 5.01472 18.9852 3 16.5 3H7.5ZM8.0625 11.1667C7.60226 11.1667 7.22917 11.5398 7.22917 12C7.22917 12.4602 7.60226 12.8333 8.0625 12.8333H15.9375C16.3977 12.8333 16.7708 12.4602 16.7708 12C16.7708 11.5398 16.3977 11.1667 15.9375 11.1667H8.0625Z" fill="currentColor"/>
</svg>
