<svg width="24" height="24" viewBox="0 0 24 24" fill="none" xmlns="http://www.w3.org/2000/svg">
    <path d="M12 9V17L8 13" stroke="black" stroke-width="2" stroke-linecap="round" stroke-linejoin="round"/>
    <path d="M12 17L16 13" stroke="black" stroke-width="2" stroke-linecap="round" stroke-linejoin="round"/>
    <path d="M4.39303 15.2686C3.57629 14.5541 2.93685 13.6595 2.5252 12.6555C2.11354 11.6515 1.94095 10.5655 2.02105 9.48329C2.10115 8.40111 2.43175 7.35237 2.98674 6.41989C3.54173 5.48741 4.30591 4.69673 5.21894 4.11028C6.13197 3.52384 7.16883 3.15769 8.24766 3.04076C9.32648 2.92383 10.4177 3.05931 11.4352 3.43651C12.4527 3.81371 13.3685 4.4223 14.1104 5.21422C14.8523 6.00613 15.3999 6.95968 15.71 7.99957H17.5C18.4721 7.99945 19.4181 8.31409 20.1964 8.89643C20.9747 9.47876 21.5436 10.2975 21.8178 11.23C22.092 12.1626 22.0569 13.1589 21.7177 14.0699C21.3785 14.9809 20.7534 15.7575 19.936 16.2836" stroke="black" stroke-width="2" stroke-linecap="round" stroke-linejoin="round"/>
</svg>
