<svg width="24" height="24" viewBox="0 0 24 24" fill="none" xmlns="http://www.w3.org/2000/svg">
    <path d="M12 9V17" stroke="black" stroke-width="2" stroke-linecap="round" stroke-linejoin="round"/>
    <path d="M3.99985 14.8983C3.25689 14.1392 2.69642 13.221 2.36089 12.2132C2.02535 11.2054 1.92356 10.1345 2.06321 9.08159C2.20287 8.02864 2.58031 7.02129 3.16695 6.13582C3.75358 5.25036 4.53403 4.51 5.44918 3.97084C6.36433 3.43168 7.39018 3.10784 8.44902 3.02387C9.50786 2.93989 10.5719 3.09798 11.5606 3.48615C12.5493 3.87432 13.4367 4.4824 14.1556 5.26432C14.8745 6.04625 15.406 6.98152 15.7099 7.99929H17.4999C18.4654 7.99918 19.4053 8.30961 20.1808 8.88473C20.9564 9.45985 21.5264 10.2692 21.8066 11.1931C22.0869 12.117 22.0625 13.1066 21.7372 14.0157C21.4118 14.9247 20.8027 15.705 19.9999 16.2413" stroke="black" stroke-width="2" stroke-linecap="round" stroke-linejoin="round"/>
    <path d="M8 13L12 9L16 13" stroke="black" stroke-width="2" stroke-linecap="round" stroke-linejoin="round"/>
</svg>
