<svg width="24" height="24" viewBox="0 0 24 24" fill="none" xmlns="http://www.w3.org/2000/svg">
    <path fill-rule="evenodd" clip-rule="evenodd" d="M12 2C12.4767 2 12.8871 2.33646 12.9806 2.80388C13.4326 5.06378 14.8008 7.26002 16.6247 8.71913C18.8043 10.4628 20 12.6294 20 15C20 17.1217 19.1571 19.1566 17.6569 20.6569C16.1566 22.1571 14.1217 23 12 23C9.87827 23 7.84344 22.1571 6.34315 20.6569C4.84285 19.1566 4 17.1217 4 15C4 12.6294 5.19568 10.4628 7.3753 8.71913C9.19919 7.26002 10.5674 5.06378 11.0194 2.80388C11.1129 2.33646 11.5233 2 12 2Z" fill="black"/>
</svg>
