<svg width="24" height="24" viewBox="0 0 24 24" fill="none" xmlns="http://www.w3.org/2000/svg"><path d="M15.5007 17.75L16.7941 19.5205C16.9155 19.7127 17.1488 19.7985 17.3618 19.7224C18.1656 19.4353 20.1579 18.6572 21.7983 17.4725C21.9262 17.3801 22.0001 17.2261 21.9991 17.0673C21.9991 8.25 19.5007 5.75 19.5007 5.75C19.5007 5.75 17.5007 4.60213 15.3546 4.25602C15.1435 4.22196 14.9367 4.33509 14.8428 4.52891L14.3978 5.44677C14.3978 5.44677 13.2852 5.21397 11.9999 5.21397C10.7146 5.21397 9.60204 5.44677 9.60204 5.44677L9.15705 4.52891C9.06308 4.33509 8.85638 4.22196 8.64523 4.25602C6.50073 4.60187 4.50073 5.75 4.50073 5.75C4.50073 5.75 2.00074 8.25 2.00074 17.0673C1.99974 17.2261 2.07359 17.3801 2.20153 17.4725C3.8419 18.6572 5.83424 19.4353 6.638 19.7224C6.85099 19.7985 7.08431 19.7127 7.20576 19.5205L8.50073 17.75 M17.5007 16.75C17.5007 16.75 15.2056 18.25 12.0007 18.25C8.79581 18.25 6.50073 16.75 6.50073 16.75 M17.2507 12.25C17.2507 13.3546 16.4672 14.25 15.5007 14.25C14.5342 14.25 13.7507 13.3546 13.7507 12.25C13.7507 11.1454 14.5342 10.25 15.5007 10.25C16.4672 10.25 17.2507 11.1454 17.2507 12.25Z M10.2507 12.25C10.2507 13.3546 9.46723 14.25 8.50073 14.25C7.53424 14.25 6.75073 13.3546 6.75073 12.25C6.75073 11.1454 7.53424 10.25 8.50073 10.25C9.46723 10.25 10.2507 11.1454 10.2507 12.25Z" stroke="currentColor"/>
</svg>
