<svg width="24" height="24" viewBox="0 0 24 24" fill="none" xmlns="http://www.w3.org/2000/svg">
    <path d="M12 11V15M12 15H16M12 15L13.535 13.395C14.109 12.8433 14.8065 12.4367 15.5694 12.2089C16.3323 11.9812 17.1386 11.9389 17.9211 12.0856C18.7037 12.2324 19.4399 12.5638 20.0684 13.0525C20.697 13.5411 21.1998 14.1728 21.535 14.895M22 22V18M22 18H18M22 18L20.465 19.605C19.891 20.1567 19.1935 20.5633 18.4306 20.7911C17.6677 21.0188 16.8614 21.0611 16.0789 20.9144C15.2963 20.7676 14.5601 20.4362 13.9316 19.9475C13.303 19.4589 12.8002 18.8272 12.465 18.105M21 5C21 6.65685 16.9706 8 12 8C7.02944 8 3 6.65685 3 5M21 5C21 3.34315 16.9706 2 12 2C7.02944 2 3 3.34315 3 5M21 5V9.3M3 5L3 19C2.99937 19.6487 3.62953 20.28 4.796 20.7992C5.96248 21.3184 7.60243 21.6976 9.47 21.88M3 12C2.99856 12.5592 3.46595 13.1073 4.34943 13.5826C5.23292 14.0579 6.49733 14.4415 8 14.69" stroke="currentColor" stroke-width="2" stroke-linecap="round" stroke-linejoin="round"/>
</svg>
