<svg width="24" height="24" viewBox="0 0 24 24" fill="none" xmlns="http://www.w3.org/2000/svg">
    <path d="M6.02079 6.81677C4.25153 8.00091 2.87372 9.68373 2.06202 11.6519C1.97868 11.8764 1.97868 12.1234 2.06202 12.3479C2.87372 14.316 4.25153 15.9988 6.02079 17.183C7.79004 18.3671 9.87106 18.9993 12 18.9993C14.129 18.9993 16.21 18.3671 17.9792 17.183C19.7485 15.9988 21.1263 14.316 21.938 12.3479C22.0214 12.1234 22.0214 11.8764 21.938 11.6519C21.1263 9.68373 19.7485 8.00091 17.9792 6.81677C16.21 5.63263 14.129 5.00049 12 5.00049M14.084 14.158C13.5182 14.7045 12.7604 15.0069 11.9738 15C11.1872 14.9932 10.4348 14.6777 9.87856 14.1215C9.32233 13.5652 9.00683 12.8128 8.99999 12.0262C8.99316 11.2396 9.29554 10.4818 9.84202 9.916M2.00002 2L14 14" stroke="currentColor" stroke-width="2" stroke-linecap="round" stroke-linejoin="round"/>
</svg>
