<svg width="24" height="24" viewBox="0 0 24 24" fill="none" xmlns="http://www.w3.org/2000/svg">
    <path d="M19 7V4C19 3.73478 18.8946 3.48043 18.7071 3.29289C18.5196 3.10536 18.2652 3 18 3H5C4.46957 3 3.96086 3.21071 3.58579 3.58579C3.21071 3.96086 3 4.46957 3 5M19 7H5C4.46957 7 3.96086 6.78929 3.58579 6.41421C3.21071 6.03914 3 5.53043 3 5M19 7H20C20.2652 7 20.5196 7.10536 20.7071 7.29289C20.8946 7.48043 21 7.73478 21 8V9.5M3 5V19C3 19.5304 3.21071 20.0391 3.58579 20.4142C3.96086 20.7893 4.46957 21 5 21H13M22 17.5L19.3257 18.6606C19.042 18.7866 18.9 18.85 18.75 18.85C18.6 18.85 18.458 18.787 18.1743 18.6606L15.5 17.5M22 17.5C22 17.2606 21.8584 17.05 21.5742 16.6288L19.9479 14.2132C19.4028 13.405 19.1307 13 18.75 13C18.3693 13 18.0972 13.4045 17.5521 14.2132L15.9257 16.6288C15.6421 17.05 15.5 17.2606 15.5 17.5M22 17.5C22 17.7394 21.8584 17.95 21.5742 18.3712L19.9479 20.7868C19.4028 21.595 19.1307 22 18.75 22C18.3693 22 18.0972 21.5955 17.5521 20.7868L15.9257 18.3712C15.6421 17.95 15.5 17.7394 15.5 17.5" stroke="black" stroke-width="2" stroke-linecap="round" stroke-linejoin="round"/>
</svg>
