<svg width="24" height="24" viewBox="0 0 24 24" fill="none" xmlns="http://www.w3.org/2000/svg">
    <path d="M4.96483 21.8638C2.83096 21.292 1.56463 19.0987 2.1364 16.9648C2.70817 14.831 4.90151 13.5646 7.03538 14.1364M6.0001 10.0002V5.00021C6.0001 3.30021 7.3001 2.00021 9.0001 2.00021H10.0001M6.0001 10.0002L3.0001 7.00021M6.0001 10.0002L9.0001 7.00021M20.2944 9.27695C22.104 8.00984 22.5438 5.51566 21.2767 3.70604C20.0096 1.89642 17.5154 1.45662 15.7058 2.72373C13.8962 3.99084 13.4564 6.48503 14.7235 8.29465M13.7501 22.0002H19.2501M16.5 12.0002V22.0002M11.5501 14.2222H12.6501C13.7501 14.2222 15.4001 13.6666 16.5001 13.111C17.6001 13.6666 19.2501 14.2222 20.3501 14.2222H21.4501M7.36819 21.7586C5.29228 22.5141 2.99691 21.4438 2.24134 19.3679C1.48577 17.292 2.55612 14.9966 4.63203 14.241M18.7001 19.2225L20.3501 14.778L22.0001 19.2225C21.5216 19.5836 20.9441 19.778 20.3501 19.778C19.7561 19.778 19.1786 19.5836 18.7001 19.2225ZM11.0001 19.2225L12.6501 14.7781L14.3001 19.2225C13.8216 19.5836 13.2441 19.7781 12.6501 19.7781C12.0561 19.7781 11.4786 19.5836 11.0001 19.2225Z" stroke="currentColor" stroke-width="2" stroke-linecap="round" stroke-linejoin="round"/>
</svg>
