<svg viewBox="0 0 24 24" fill="none" xmlns="http://www.w3.org/2000/svg"><path d="M14.4 14C14.5591 14 14.7117 13.9504 14.8243 13.8622C14.9368 13.7739 15 13.6542 15 13.5294V11.1765C15 11.0517 14.9368 10.932 14.8243 10.8437C14.7117 10.7555 14.5591 10.7059 14.4 10.7059H12.03C11.9297 10.7067 11.8307 10.6877 11.7421 10.6507C11.6535 10.6137 11.5782 10.5599 11.523 10.4941L11.28 10.2118C11.2254 10.1467 11.151 10.0933 11.0635 10.0563C10.9761 10.0194 10.8783 10 10.779 10H9.6C9.44087 10 9.28826 10.0496 9.17574 10.1378C9.06321 10.2261 9 10.3458 9 10.4706V13.5294C9 13.6542 9.06321 13.7739 9.17574 13.8622C9.28826 13.9504 9.44087 14 9.6 14H14.4Z" stroke="currentColor" stroke-width="2" stroke-linecap="round" stroke-linejoin="round"/><path d="M20 6.5L12 6.5L4 6.5" stroke="currentColor" stroke-width="2" stroke-linecap="round"/><path d="M11.9951 1.5L11.9951 6.50391" stroke="currentColor" stroke-width="2" stroke-linecap="round"/><path d="M11.9995 4.99951L9 6.50781" stroke="currentColor" stroke-width="2" stroke-linecap="round"/><path d="M12 5.00781L15 6.50781" stroke="currentColor" stroke-width="2" stroke-linecap="round"/><path d="M20 17.5078L12 17.5078L4 17.5078" stroke="currentColor" stroke-width="2" stroke-linecap="round"/><path d="M11.9951 22.5078L11.9951 17.5039" stroke="currentColor" stroke-width="2" stroke-linecap="round"/><path d="M11.9995 19.0083L9 17.5" stroke="currentColor" stroke-width="2" stroke-linecap="round"/><path d="M12 19L15 17.5" stroke="currentColor" stroke-width="2" stroke-linecap="round"/></svg>
