<svg viewBox="0 0 24 24" fill="none" xmlns="http://www.w3.org/2000/svg"><path d="M16.8 16.5C17.1183 16.5 17.4235 16.3884 17.6485 16.1899C17.8736 15.9913 18 15.722 18 15.4412V10.1471C18 9.86624 17.8736 9.59693 17.6485 9.39836C17.4235 9.19979 17.1183 9.08824 16.8 9.08824H12.06C11.8593 9.08997 11.6613 9.04726 11.4842 8.96402C11.307 8.88078 11.1564 8.75967 11.046 8.61176L10.56 7.97647C10.4507 7.83007 10.302 7.7099 10.1271 7.62674C9.95221 7.54358 9.75667 7.50003 9.558 7.5H7.2C6.88174 7.5 6.57652 7.61155 6.35147 7.81012C6.12643 8.00869 6 8.27801 6 8.55882V15.4412C6 15.722 6.12643 15.9913 6.35147 16.1899C6.57652 16.3884 6.88174 16.5 7.2 16.5H16.8Z" stroke="currentColor" stroke-width="2" stroke-linecap="round" stroke-linejoin="round"/><path d="M4 20.0078H12H20" stroke="currentColor" stroke-width="2" stroke-linecap="round"/><path d="M12.0049 22.5078L12.0049 20.0039" stroke="currentColor" stroke-width="2" stroke-linecap="round"/><path d="M12.0005 21.5083L15 20" stroke="currentColor" stroke-width="2" stroke-linecap="round"/><path d="M12 21.5L9 20" stroke="currentColor" stroke-width="2" stroke-linecap="round"/><path d="M20 4L12 4L4 4" stroke="currentColor" stroke-width="2" stroke-linecap="round"/><path d="M11.9951 1.5L11.9951 4.00391" stroke="currentColor" stroke-width="2" stroke-linecap="round"/><path d="M11.9995 2.49951L9 4.00781" stroke="currentColor" stroke-width="2" stroke-linecap="round"/><path d="M12 2.50781L15 4.00781" stroke="currentColor" stroke-width="2" stroke-linecap="round"/></svg>
