<svg width="24" height="24" viewBox="0 0 24 24" fill="none" xmlns="http://www.w3.org/2000/svg">
    <path d="M6 9.5L2.59996 11.0809C2.42251 11.1591 2.27164 11.2873 2.16573 11.4497C2.05981 11.6122 2.00342 11.8019 2.00342 11.9959C2.00342 12.1898 2.05981 12.3795 2.16573 12.542C2.27164 12.7045 2.42251 12.8326 2.59996 12.9109L11.18 16.8209C11.4405 16.9397 11.7236 17.0012 12.01 17.0012C12.2964 17.0012 12.5794 16.9397 12.84 16.8209L21.42 12.9209C21.5974 12.8426 21.7483 12.7145 21.8542 12.552C21.9601 12.3895 22.0165 12.1998 22.0165 12.0059C22.0165 11.8119 21.9601 11.6222 21.8542 11.4597C21.7483 11.2973 21.5974 11.1691 21.42 11.0909L18 9.5" stroke="black" stroke-width="2" stroke-linecap="round" stroke-linejoin="round"/>
    <path d="M2 17C1.99953 17.1913 2.05392 17.3787 2.15672 17.5399C2.25952 17.7012 2.40642 17.8297 2.58 17.91L11.18 21.82C11.4392 21.9374 11.7205 21.9981 12.005 21.9981C12.2895 21.9981 12.5708 21.9374 12.83 21.82L21.41 17.92C21.587 17.8404 21.737 17.7111 21.8418 17.5477C21.9466 17.3844 22.0015 17.1941 22 17" stroke="black" stroke-width="2" stroke-linecap="round" stroke-linejoin="round"/>
    <path d="M7.9165 5.99935L11.9998 1.91602L16.0832 5.99935" stroke="black" stroke-width="2" stroke-linecap="round" stroke-linejoin="round"/>
    <path d="M12 10.0827V1.91602" stroke="black" stroke-width="2" stroke-linecap="round" stroke-linejoin="round"/>
</svg>
