<svg width="24" height="24" viewBox="0 0 24 24" fill="none" xmlns="http://www.w3.org/2000/svg">
    <path d="M21 6C21 7.65685 16.9706 9 12 9C7.02944 9 3 7.65685 3 6M21 6C21 4.34315 16.9706 3 12 3C7.02944 3 3 4.34315 3 6M21 6V10.5M3 6V18C3 19.5 5.5 20.5 10.5 21M3 10C3 12 8 13 11 13M3 14C3.3 15.5 5.5 16.4 9.5 16.9M21 18.5138L20.027 18.1895M13.973 15.8111L13 15.4868M15.4865 21L15.8108 20.027M18.1892 13.973L18.5135 13M18.7297 21.0004L18.2973 19.9193M15.7027 14.0811L15.2703 13M13 18.7301L14.0811 18.2977M19.9189 15.7028L21 15.2704M20.2432 17.0002C20.2432 18.7914 18.7912 20.2434 17 20.2434C15.2088 20.2434 13.7568 18.7914 13.7568 17.0002C13.7568 15.209 15.2088 13.757 17 13.757C18.7912 13.757 20.2432 15.209 20.2432 17.0002Z" stroke="currentColor" stroke-width="2" stroke-linecap="round" stroke-linejoin="round"/>
</svg>
