<svg width="24" height="24" viewBox="0 0 24 24" fill="none" xmlns="http://www.w3.org/2000/svg">
    <path d="M10 21L8 22L6 21L4 22V2L6 3L8 2L10 3L12 2L14 3L16 2L18 3L20 2V11M17 6L12.677 10.323C12.6538 10.3463 12.6262 10.3648 12.5958 10.3774C12.5654 10.39 12.5329 10.3964 12.5 10.3964C12.4671 10.3964 12.4346 10.39 12.4042 10.3774C12.3738 10.3648 12.3462 10.3463 12.323 10.323L10.677 8.677C10.6301 8.63013 10.5665 8.6038 10.5002 8.6038C10.434 8.6038 10.3704 8.63013 10.3235 8.677L7 12M8 14.5V16M21 19.5138L20.027 19.1895M13.973 16.8111L13 16.4868M15.4865 22L15.8108 21.027M18.1892 14.973L18.5135 14M18.7297 22.0004L18.2973 20.9193M15.7027 15.0811L15.2703 14M13 19.7301L14.0811 19.2977M19.9189 16.7028L21 16.2704M17 10.5H17.01M20.2432 18.0002C20.2432 19.7914 18.7912 21.2434 17 21.2434C15.2088 21.2434 13.7568 19.7914 13.7568 18.0002C13.7568 16.209 15.2088 14.757 17 14.757C18.7912 14.757 20.2432 16.209 20.2432 18.0002Z" stroke="currentColor" stroke-width="2" stroke-linecap="round" stroke-linejoin="round"/>
</svg>
