<svg width="24" height="24" viewBox="0 0 24 24" fill="none" xmlns="http://www.w3.org/2000/svg">
    <path d="M8.3 21H6M6 21H5C4.46957 21 3.96086 20.7893 3.58579 20.4142C3.21071 20.0391 3 19.5304 3 19V5C3 4.46957 3.21071 3.96086 3.58579 3.58579C3.96086 3.21071 4.46957 3 5 3H19C19.5304 3 20.0391 3.21071 20.4142 3.58579C20.7893 3.96086 21 4.46957 21 5V11M6 21L7.8 19.2M13.75 22H19.25M16.4999 12V22M11.55 14.222H12.65C13.75 14.222 15.4 13.6664 16.5 13.1108C17.6 13.6664 19.25 14.222 20.35 14.222H21.45M11 9C11 10.1046 10.1046 11 9 11C7.89543 11 7 10.1046 7 9C7 7.89543 7.89543 7 9 7C10.1046 7 11 7.89543 11 9ZM18.7 19.2223L20.35 14.7778L22 19.2223C21.5215 19.5834 20.944 19.7778 20.35 19.7778C19.756 19.7778 19.1785 19.5834 18.7 19.2223ZM11 19.2223L12.65 14.7779L14.3 19.2223C13.8215 19.5834 13.244 19.7779 12.65 19.7779C12.056 19.7779 11.4785 19.5834 11 19.2223Z" stroke="currentColor" stroke-width="2" stroke-linecap="round" stroke-linejoin="round"/>
</svg>
