<svg width="24" height="24" viewBox="0 0 24 24" fill="none" xmlns="http://www.w3.org/2000/svg"><path d="M12 16C12.2094 16 12.4041 15.9011 12.7934 15.7032L15.9228 14.1128C17.3076 13.4091 18 13.0572 18 12.5V5.5M12 16C11.7906 16 11.596 15.9011 11.2066 15.7032L8.07717 14.1128C6.69239 13.4091 6 13.0572 6 12.5V5.5M12 16V9M18 5.5C18 4.94278 17.3076 4.59091 15.9228 3.88716L12.7934 2.29679C12.404 2.09893 12.2094 2 12 2C11.7906 2 11.596 2.09893 11.2066 2.29679L8.07717 3.88716C6.69239 4.59091 6 4.94278 6 5.5M18 5.5C18 6.05722 17.3076 6.4091 15.9228 7.11284L12.7934 8.70321C12.404 8.90107 12.2094 9 12 9M6 5.5C6 6.05722 6.69239 6.4091 8.07717 7.11284L11.2066 8.70321C11.596 8.90107 11.7906 9 12 9" stroke="currentColor" stroke-width="2" stroke-linejoin="round" /><path d="M9.5 20.5C9.5 19.25 10.5596 19 11.25 19H12.75C13.4404 19 14.5 19.25 14.5 20.5M9.5 20.5C9.5 21.75 10.5596 22 11.25 22H12.75C13.4404 22 14.5 21.75 14.5 20.5M9.5 20.5H5M14.5 20.5H19" stroke="currentColor" stroke-width="2" stroke-linecap="round" />
</svg>
