<svg width="24" height="24" viewBox="0 0 24 24" fill="none" xmlns="http://www.w3.org/2000/svg"><path d="M5 4C4.73478 4 4.48049 4.10544 4.29297 4.29297C4.10544 4.48049 4 4.73478 4 5C4 5.26522 4.10544 5.5195 4.29297 5.70703C4.4805 5.89456 4.73478 6 5 6H18V4H5ZM20 6C20.5303 6 21.039 6.21081 21.4141 6.58594C21.789 6.96091 22 7.46946 22 8V10.5C22 11.0523 21.5523 11.5 21 11.5C20.4477 11.5 20 11.0523 20 10.5V8H5C4.65558 8 4.31859 7.93703 4 7.82422V19C4 19.2652 4.1054 19.5194 4.29297 19.707C4.48048 19.8946 4.73477 20 5 20H9C9.55228 20 10 20.4477 10 21C10 21.5523 9.55228 22 9 22H5C4.20438 22 3.44153 21.6837 2.87891 21.1211C2.31632 20.5585 2 19.7956 2 19V5C2 4.20436 2.31628 3.44152 2.87891 2.87891C3.44152 2.31628 4.20436 2 5 2H18C18.5303 2 19.039 2.21081 19.4141 2.58594C19.789 2.96091 20 3.46946 20 4V6Z" fill="black"/><path d="M13.3668 20.8717C13.4372 20.8013 13.5318 20.7617 13.6309 20.7617H22.7959C22.9631 20.7617 23.0468 20.9642 22.9279 21.0808L21.1169 22.8918C21.0465 22.9622 20.9519 23.0018 20.8529 23.0018H11.6878C11.5206 23.0018 11.437 22.7993 11.5558 22.6827L13.3668 20.8717Z" fill="black"/><path d="M13.3668 13.61C13.4372 13.5396 13.5318 13.5 13.6309 13.5H22.7959C22.9631 13.5 23.0468 13.7024 22.9279 13.8191L21.1169 15.6278C21.0465 15.6982 20.9519 15.7379 20.8529 15.7379H11.6878C11.5206 15.7379 11.437 15.5354 11.5558 15.4188L13.3668 13.61Z" fill="black"/><path d="M21.1169 17.2194C21.0465 17.149 20.9519 17.1094 20.8529 17.1094H11.6878C11.5206 17.1094 11.437 17.3118 11.5558 17.4284L13.3668 19.2372C13.4372 19.3076 13.5318 19.3472 13.6309 19.3472H22.7959C22.9631 19.3472 23.0468 19.1448 22.9279 19.0282L21.1169 17.2194Z" fill="black"/>
</svg>
