<svg width="24" height="24" viewBox="0 0 24 24" fill="none" xmlns="http://www.w3.org/2000/svg"><path d="M12.8334 20.3286C12.2995 20.3286 11.7872 20.1174 11.4084 19.741L4.15508 12.4877C3.8425 12.1752 3.66684 11.7513 3.66675 11.3093V5.33268C3.66675 4.89065 3.84234 4.46673 4.1549 4.15417C4.46746 3.84161 4.89139 3.66602 5.33341 3.66602H11.3101C11.7521 3.66611 12.1759 3.84177 12.4884 4.15435L19.7417 11.4077C20.1181 11.7864 20.3294 12.2987 20.3294 12.8327M19.9167 17.8442L19.1059 17.5739M14.0609 15.5919L13.2501 15.3217M15.3222 19.916L15.5924 19.1052M17.5744 14.0602L17.8447 13.2493M18.0249 19.9163L17.6645 19.0154M15.5023 14.1502L15.142 13.2493M13.2501 18.0245L14.151 17.6641M19.0159 15.5017L19.9167 15.1413M8.66675 8.24935C8.66675 8.47947 8.4802 8.66602 8.25008 8.66602C8.01996 8.66602 7.83341 8.47947 7.83341 8.24935C7.83341 8.01923 8.01996 7.83268 8.25008 7.83268C8.4802 7.83268 8.66675 8.01923 8.66675 8.24935ZM19.2861 16.5828C19.2861 18.0755 18.0761 19.2855 16.5834 19.2855C15.0908 19.2855 13.8807 18.0755 13.8807 16.5828C13.8807 15.0902 15.0908 13.8802 16.5834 13.8802C18.0761 13.8802 19.2861 15.0902 19.2861 16.5828Z" stroke="currentColor" stroke-width="1.5" stroke-linecap="round" stroke-linejoin="round" />
</svg>
