<svg width="24" height="24" viewBox="0 0 24 24" fill="none" xmlns="http://www.w3.org/2000/svg">
    <path d="M14.5 4.5H17.2778C17.8671 4.5 18.4324 4.71071 18.8491 5.08579C19.2659 5.46086 19.5 5.96957 19.5 6.5V9.5M9.5 4.5H6.72222C6.13285 4.5 5.56762 4.71071 5.15087 5.08579C4.73413 5.46086 4.5 5.96957 4.5 6.5V9.5M14.5 19.5H17.2778C17.8671 19.5 18.4324 19.2893 18.8491 18.9142C19.2659 18.5391 19.5 18.0304 19.5 17.5V14.5M9.5 19.5H6.72222C6.13285 19.5 5.56762 19.2893 5.15087 18.9142C4.73413 18.5391 4.5 18.0304 4.5 17.5V14.5M10.2143 2H13.7857C14.1802 2 14.5 2.3198 14.5 2.71429V6.28571C14.5 6.6802 14.1802 7 13.7857 7H10.2143C9.8198 7 9.5 6.6802 9.5 6.28571V2.71429C9.5 2.3198 9.8198 2 10.2143 2ZM10.2143 17H13.7857C14.1802 17 14.5 17.3198 14.5 17.7143V21.2857C14.5 21.6802 14.1802 22 13.7857 22H10.2143C9.8198 22 9.5 21.6802 9.5 21.2857V17.7143C9.5 17.3198 9.8198 17 10.2143 17ZM2.71429 9.5H6.28571C6.6802 9.5 7 9.8198 7 10.2143V13.7857C7 14.1802 6.6802 14.5 6.28571 14.5H2.71429C2.3198 14.5 2 14.1802 2 13.7857V10.2143C2 9.8198 2.3198 9.5 2.71429 9.5ZM17.7143 9.5H21.2857C21.6802 9.5 22 9.8198 22 10.2143V13.7857C22 14.1802 21.6802 14.5 21.2857 14.5H17.7143C17.3198 14.5 17 14.1802 17 13.7857V10.2143C17 9.8198 17.3198 9.5 17.7143 9.5Z" stroke="currentColor" stroke-width="2" stroke-linecap="round" stroke-linejoin="round"/>
</svg>
