<svg width="24" height="24" viewBox="0 0 24 24" fill="none" xmlns="http://www.w3.org/2000/svg">
    <path d="M18.9999 6.78945V3.94736C18.9999 3.69611 18.8945 3.45514 18.7071 3.27748C18.5195 3.09981 18.2651 3 17.9999 3H5C4.46956 3 3.96086 3.19962 3.58579 3.55496C3.21071 3.91029 3 4.39222 3 4.89473M18.9999 6.78945H5C4.46956 6.78945 3.96086 6.58984 3.58579 6.23451C3.21071 5.87918 3 5.39724 3 4.89473M18.9999 6.78945H20C20.2652 6.78945 20.5194 6.88927 20.707 7.06693C20.8946 7.2446 20.9999 7.48556 20.9999 7.73683V9.63151M3 4.89473V18.1578C3 18.6604 3.21071 19.1423 3.58579 19.4976C3.96086 19.8529 4.46956 20.0526 5 20.0526H6.99998M21.9996 16.2255V18.9538C21.9996 19.8405 20.0745 21 17.6998 21C15.325 21 13.3999 19.8405 13.3999 18.9538V15.7893M13.5807 16.4699C14.1121 17.253 15.7553 17.9875 17.7001 17.9875C20.0748 17.9875 22 16.8922 22 15.9509C22 15.4223 21.3936 14.8432 20.4422 14.4367M11 13.4583V16.5836C11 17.1057 11.8178 17.4561 12.8331 17.8903M15.5293 15.5038C18.0308 15.5038 20.0585 14.4364 20.0585 13.519C20.0585 12.6017 18.0308 11.5263 15.5293 11.5263C13.0278 11.5263 11 12.6012 11 13.519C11 14.4364 13.0278 15.5038 15.5293 15.5038Z" stroke="black" stroke-width="2" stroke-linecap="round" stroke-linejoin="round"/>
</svg>
