<svg width="24" height="24" viewBox="0 0 24 24" fill="none" xmlns="http://www.w3.org/2000/svg">
    <path d="M19 7V4C19 3.73478 18.8946 3.48043 18.7071 3.29289C18.5196 3.10536 18.2652 3 18 3H5C4.46957 3 3.96086 3.21071 3.58579 3.58579C3.21071 3.96086 3 4.46957 3 5M19 7H5C4.46957 7 3.96086 6.78929 3.58579 6.41421C3.21071 6.03914 3 5.53043 3 5M19 7H20C20.2652 7 20.5196 7.10536 20.7071 7.29289C20.8946 7.48043 21 7.73478 21 8V9.5M3 5V19C3 19.5304 3.21071 20.0391 3.58579 20.4142C3.96086 20.7893 4.46957 21 5 21H13M16.5 17.5H20.35M16.5 17.5V15.0664C16.5 14.6425 16.5 14.4301 16.6338 14.2987C16.7686 14.1664 16.9849 14.1664 17.4167 14.1664H20.35C21.2612 14.1664 22 14.9134 22 15.8332C22 16.753 21.2612 17.5 20.35 17.5M16.5 17.5V19.9336C16.5 20.3575 16.5 20.5699 16.6338 20.7013C16.7686 20.8336 16.9849 20.8336 17.4167 20.8336H20.35C21.2612 20.8336 22 20.0866 22 19.1668C22 18.247 21.2612 17.5 20.35 17.5M17.8695 14.1664V13M17.8695 22V20.8336M20.0732 14.1664V13M20.0732 22V20.8336" stroke="black" stroke-width="2" stroke-linecap="round" stroke-linejoin="round"/>
</svg>
