<svg width="24" height="24" viewBox="0 0 24 24" fill="currentColor" xmlns="http://www.w3.org/2000/svg"><path d="M12 2C15.866 2 19 5.13401 19 9C19 9.11351 18.9975 9.22669 18.9922 9.33887C21.3266 10.1604 23 12.3847 23 15C23 16.558 22.4053 17.9764 21.4316 19.043L20.5605 16.8203C20.8404 16.2741 21 15.6559 21 15C21 12.79 19.21 11 17 11C15.2331 11 13.7337 12.1455 13.2041 13.7344L11.3066 13.1025C12.1007 10.7189 14.35 9 17 9C17 6.23858 14.7614 4 12 4C9.23858 4 7 6.23858 7 9C7 9.08138 7.00202 9.16244 7.00586 9.24316L7.07617 10.7305L5.67188 11.2256C4.08449 11.7841 3 13.2889 3 15C3 17.2091 4.79086 19 7 19H11.0752L10.3945 21H7C3.68629 21 1 18.3137 1 15C1 12.3847 2.67339 10.1604 5.00781 9.33887C5.00247 9.22669 5 9.11351 5 9C5 5.13401 8.13401 2 12 2Z"/><path fill-rule="evenodd" clip-rule="evenodd" d="M19.9492 22.0732L17.3223 14.9639L17.2979 14.8984H15.543L15.5186 14.9639L12.9062 22.0732L12.8564 22.207H14.915L14.9365 22.1367L15.3252 20.8789H17.5244L17.9141 22.1367L17.9365 22.207H19.999L19.9492 22.0732ZM16.0304 18.5922C15.9497 18.8542 15.8685 19.118 15.7949 19.3564H17.0537L16.4229 17.3203C16.4017 17.389 16.3775 17.467 16.3511 17.5524C16.3196 17.6542 16.248 17.8857 16.248 17.8857C16.248 17.8857 16.1056 18.3479 16.0304 18.5922Z"/>
</svg>
