<svg width="24" height="24" viewBox="0 0 24 24" fill="none" xmlns="http://www.w3.org/2000/svg">
    <path d="M21 6C21 7.65685 16.9706 9 12 9C7.02944 9 3 7.65685 3 6M21 6C21 4.34315 16.9706 3 12 3C7.02944 3 3 4.34315 3 6M21 6V10.5M3 6V18C3 19.8 7.5 20.8 9.5 20.9M3 10C3 12 9 13.5 13.5 13M3 14C3.3 15.5 5.5 16.5 10.5 17M20.4478 16.2239C20.8019 15.8697 21.0009 15.3894 21.0009 14.8885C21.0009 14.3877 20.8019 13.9073 20.4478 13.5531C20.0936 13.199 19.6132 13 19.1124 13C18.6115 13 18.1311 13.199 17.777 13.5531L14.2118 17.1201C14.0004 17.3314 13.8457 17.5925 13.7619 17.8794L13.0178 20.431C12.9955 20.5075 12.9941 20.5886 13.0139 20.6658C13.0337 20.743 13.0739 20.8134 13.1302 20.8698C13.1866 20.9261 13.257 20.9663 13.3342 20.9861C13.4114 21.0059 13.4925 21.0045 13.569 20.9822L16.1206 20.2381C16.4075 20.1543 16.6686 19.9996 16.8799 19.7882L20.4478 16.2239Z" stroke="currentColor" stroke-width="2" stroke-linecap="round" stroke-linejoin="round"/>
</svg>
