<svg width="24" height="24" viewBox="0 0 24 24" fill="none" xmlns="http://www.w3.org/2000/svg"><path d="M6 10V5C6 3.3 7.3 2 9 2H10M6 10L3 7M6 10L9 7M18 14V19C18 20.7 16.7 22 15 22H14M18 14L21 17M18 14L15 17M22 6C22 8.20914 20.2091 10 18 10C15.7909 10 14 8.20914 14 6C14 3.79086 15.7909 2 18 2C20.2091 2 22 3.79086 22 6ZM10 18C10 20.2091 8.20914 22 6 22C3.79086 22 2 20.2091 2 18C2 15.7909 3.79086 14 6 14C8.20914 14 10 15.7909 10 18Z" stroke="currentColor" stroke-width="2" stroke-linecap="round" stroke-linejoin="round" />
</svg>
