<svg width="24" height="24" viewBox="0 0 24 24" fill="none" xmlns="http://www.w3.org/2000/svg">
    <path fill-rule="evenodd" clip-rule="evenodd" d="M7.5 3C5.01472 3 3 5.01472 3 7.5V16.5C3 18.9852 5.01472 21 7.5 21H16.5C18.9852 21 21 18.9852 21 16.5V7.5C21 5.01472 18.9852 3 16.5 3H7.5ZM17.0892 9.21423C17.4147 8.88881 17.4147 8.36119 17.0892 8.03577C16.7638 7.71034 16.2362 7.71034 15.9108 8.03577L10.3125 13.634L9.49548 12.817L8.08923 11.4108C7.76381 11.0853 7.23619 11.0853 6.91077 11.4108C6.58534 11.7362 6.58534 12.2638 6.91077 12.5892L8.31702 13.9955L9.72327 15.4017C10.0487 15.7272 10.5763 15.7272 10.9017 15.4017L17.0892 9.21423Z" fill="currentColor"/>
</svg>
