<svg width="24" height="24" viewBox="0 0 24 24" fill="none" xmlns="http://www.w3.org/2000/svg">
    <path d="M8 10H4C3.46957 10 2.96086 10.1505 2.58579 10.4184C2.21071 10.6863 2 11.0497 2 11.4286V18.5714C2 18.9503 2.21071 19.3137 2.58579 19.5816C2.96086 19.8495 3.46957 20 4 20H20C20.5304 20 21.0391 19.8495 21.4142 19.5816C21.7893 19.3137 22 18.9503 22 18.5714V11.4286C22 11.0497 21.7893 10.6863 21.4142 10.4184C21.0391 10.1505 20.5304 10 20 10H16M12 15V3M12 3L8 7M12 3L16 7" stroke="currentColor" stroke-width="2" stroke-linecap="round" stroke-linejoin="round"/>
</svg>
