<svg width="24" height="24" viewBox="0 0 24 24" fill="none" xmlns="http://www.w3.org/2000/svg">
    <path d="M17 6L12.677 10.323C12.6538 10.3463 12.6262 10.3648 12.5958 10.3774C12.5654 10.39 12.5329 10.3964 12.5 10.3964C12.4671 10.3964 12.4346 10.39 12.4042 10.3774C12.3738 10.3648 12.3462 10.3463 12.323 10.323L10.677 8.677C10.6301 8.63013 10.5665 8.6038 10.5002 8.6038C10.434 8.6038 10.3704 8.63013 10.3235 8.677L7 12M8 14.5V16M20 8V2L18 3L16 2L14 3L12 2L10 3L8 2L6 3L4 2V22L6 21L8 22L8.5 21.75M18.5 12V14M12 16.5453H21M14.5 12V14M18.3 19.2725H14.7M13 13.0001H20C20.5523 13.0001 21 13.4478 21 14.0001V21C21 21.5523 20.5523 22 20 22H13C12.4477 22 12 21.5523 12 21V14.0001C12 13.4478 12.4477 13.0001 13 13.0001Z" stroke="currentColor" stroke-width="2" stroke-linecap="round" stroke-linejoin="round"/>
</svg>
