<svg width="24" height="24" viewBox="0 0 24 24" fill="none" xmlns="http://www.w3.org/2000/svg">
    <path d="M20 10V2L18 3L16 2L14 3L12 2L10 3L8 2L6 3L4 2V22L6 21L8 22L9 21.5M17 6L12.677 10.323C12.6538 10.3463 12.6262 10.3648 12.5958 10.3774C12.5654 10.39 12.5329 10.3964 12.5 10.3964C12.4671 10.3964 12.4346 10.39 12.4042 10.3774C12.3738 10.3648 12.3462 10.3463 12.323 10.323L10.677 8.677C10.6301 8.63013 10.5665 8.6038 10.5002 8.6038C10.434 8.6038 10.3704 8.63013 10.3235 8.677L7 12M8 14.5V16M16.5 15.7V17.5L17.4 17.95M21 17.5C21 19.9853 18.9853 22 16.5 22C14.0147 22 12 19.9853 12 17.5C12 15.0147 14.0147 13 16.5 13C18.9853 13 21 15.0147 21 17.5Z" stroke="currentColor" stroke-width="2" stroke-linecap="round" stroke-linejoin="round"/>
</svg>
