<svg width="24" height="24" viewBox="0 0 24 24" fill="none" xmlns="http://www.w3.org/2000/svg">
    <path d="M21 6C21 7.65685 16.9706 9 12 9C7.02944 9 3 7.65685 3 6M21 6C21 4.34315 16.9706 3 12 3C7.02944 3 3 4.34315 3 6M21 6V10.5M3 6V18C3 19.5 5.5 20.5 10.5 21M3 10C3 12 8 13 11 13M3 14C3.3 15.5 5.5 16.4 9.5 16.9M18.25 17H18.254M15.75 17H15.754M21 17C21 19.2091 19.2091 21 17 21C14.7909 21 13 19.2091 13 17C13 14.7909 14.7909 13 17 13C19.2091 13 21 14.7909 21 17Z" stroke="currentColor" stroke-width="2" stroke-linecap="round" stroke-linejoin="round"/>
</svg>
