<svg width="24" height="24" viewBox="0 0 24 24" fill="none" xmlns="http://www.w3.org/2000/svg">
    <path d="M3 12C3 13.78 3.52784 15.5201 4.51677 17.0001C5.50571 18.4802 6.91131 19.6337 8.55585 20.3149C10.2004 20.9961 12.01 21.1743 13.7558 20.8271C15.5016 20.4798 17.1053 19.6226 18.364 18.364C19.6226 17.1053 20.4798 15.5016 20.8271 13.7558C21.1743 12.01 20.9961 10.2004 20.3149 8.55585C19.6337 6.91131 18.4802 5.50571 17.0001 4.51677C15.5201 3.52784 13.78 3 12 3C9.48395 3.00947 7.06897 3.99122 5.26 5.74L3 8" stroke="black" stroke-width="2" stroke-linecap="round" stroke-linejoin="round"/>
    <path d="M3 5V8H6" stroke="black" stroke-width="2" stroke-linecap="round" stroke-linejoin="round"/>
    <path d="M15 9.125H10.5C10.1022 9.125 9.72064 9.28304 9.43934 9.56434C9.15804 9.84564 9 10.2272 9 10.625C9 11.0228 9.15804 11.4044 9.43934 11.6857C9.72064 11.967 10.1022 12.125 10.5 12.125H13.5C13.8978 12.125 14.2794 12.283 14.5607 12.5643C14.842 12.8456 15 13.2272 15 13.625C15 14.0228 14.842 14.4044 14.5607 14.6857C14.2794 14.967 13.8978 15.125 13.5 15.125H9" stroke="black" stroke-width="2" stroke-linecap="round" stroke-linejoin="round"/>
    <path d="M12 16.25V8" stroke="black" stroke-width="2" stroke-linecap="round" stroke-linejoin="round"/>
</svg>
