<svg width="24" height="24" viewBox="0 0 24 24" fill="none" xmlns="http://www.w3.org/2000/svg">
    <path d="M19 7V4C19 3.73478 18.8946 3.48043 18.7071 3.29289C18.5196 3.10536 18.2652 3 18 3H5C4.46957 3 3.96086 3.21071 3.58579 3.58579C3.21071 3.96086 3 4.46957 3 5M19 7H5C4.46957 7 3.96086 6.78929 3.58579 6.41421C3.21071 6.03914 3 5.53043 3 5M19 7H20C20.2652 7 20.5196 7.10536 20.7071 7.29289C20.8946 7.48043 21 7.73478 21 8V9.5M3 5V19C3 19.5304 3.21071 20.0391 3.58579 20.4142C3.96086 20.7893 4.46957 21 5 21H11M12.8393 15.7692H21.6607M17.25 13H20.1609C20.2195 13.0001 20.2772 13.0154 20.3283 13.0446C20.3795 13.0738 20.4225 13.1159 20.4533 13.1668L21.9477 15.6278C21.985 15.6895 22.0032 15.7613 21.9996 15.8338C21.996 15.9062 21.9708 15.9759 21.9275 16.0334L17.5221 21.8631C17.49 21.9057 17.4489 21.9402 17.4017 21.9639C17.3545 21.9877 17.3026 22 17.25 22C17.1974 22 17.1455 21.9877 17.0983 21.9639C17.0511 21.9402 17.01 21.9057 16.9779 21.8631L12.5725 16.0334C12.5292 15.9759 12.504 15.9062 12.5004 15.8338C12.4969 15.7613 12.515 15.6895 12.5523 15.6278L14.0467 13.1668C14.0775 13.1159 14.1205 13.0738 14.1717 13.0446C14.2228 13.0154 14.2805 13.0001 14.3391 13H17.25ZM17.25 13V21.6539" stroke="black" stroke-width="2" stroke-linecap="round" stroke-linejoin="round"/>
</svg>
